<svg version="1.1" id="Layer_1" xmlns="http://www.w3.org/2000/svg" x="0" y="0" viewBox="0 0 1000 1000" style="enable-background:new 0 0 1000 1000" xml:space="preserve"><style>.st0{fill:#dd9d37}.st2{fill:#ffdb5b}</style><switch><g><path class="st0" d="M751.37 162.93c-32.52-43.99-70.44-78.57-112.69-102.78C594.79 35 548.13 22.2 499.99 22.11c-48.12.09-94.78 12.89-138.67 38.04-42.25 24.21-80.17 58.79-112.69 102.78C181.99 253.06 145.29 372.77 145.29 500s36.7 246.94 103.34 337.08c32.52 43.98 70.44 78.56 112.69 102.77 43.89 25.15 90.55 37.95 138.69 38.04 48.12-.09 94.78-12.89 138.67-38.04 42.25-24.21 80.17-58.79 112.69-102.77C818.01 746.94 854.71 627.23 854.71 500s-36.7-246.94-103.34-337.07zm-8.85 667.62C677.64 918.3 591.51 966.71 500.01 966.9c-91.52-.18-177.65-48.6-242.53-136.35C192.23 742.29 156.29 624.9 156.29 500s35.94-242.28 101.19-330.54C322.36 81.7 408.49 33.29 499.99 33.11c91.52.18 177.65 48.6 242.53 136.36C807.77 257.73 843.71 375.11 843.71 500c0 124.9-35.94 242.29-101.19 330.55z"/><path d="M742.52 169.46C677.64 81.7 591.51 33.29 499.99 33.11c-91.5.18-177.63 48.59-242.51 136.35C192.23 257.73 156.29 375.11 156.29 500s35.94 242.29 101.19 330.55c64.88 87.75 151.01 136.16 242.53 136.34 91.5-.18 177.63-48.59 242.51-136.34C807.77 742.29 843.71 624.89 843.71 500s-35.94-242.27-101.19-330.54zm-11.95 482.91c-14.31 46.74-34.9 88.48-61.22 124.07-24.6 33.27-52.42 58.77-82.7 75.8-27.76 15.61-56.91 23.56-86.64 23.65-29.74-.09-58.89-8.04-86.66-23.65-30.28-17.03-58.1-42.53-82.7-75.8-26.32-35.59-46.91-77.33-61.22-124.07-14.69-47.99-22.14-99.25-22.14-152.37s7.45-104.38 22.14-152.37c14.3-46.73 34.9-88.46 61.22-124.07 24.6-33.27 52.43-58.77 82.7-75.8 27.76-15.61 56.91-23.57 86.64-23.65 29.74.08 58.89 8.04 86.66 23.65 30.27 17.03 58.1 42.53 82.7 75.8 26.32 35.61 46.92 77.34 61.22 124.07 14.69 47.99 22.14 99.25 22.14 152.37s-7.45 104.38-22.14 152.37z" style="fill:#001058"/><path class="st0" d="M752.71 500c0-53.12-7.45-104.38-22.14-152.37-14.3-46.73-34.9-88.47-61.22-124.07-24.6-33.28-52.43-58.78-82.7-75.8-27.77-15.61-56.92-23.57-86.66-23.66-29.73.09-58.88 8.05-86.64 23.66-30.27 17.02-58.1 42.52-82.7 75.8-26.32 35.6-46.92 77.34-61.22 124.07-14.69 47.99-22.14 99.25-22.14 152.37s7.45 104.38 22.14 152.37c14.31 46.73 34.9 88.47 61.22 124.07 24.6 33.27 52.42 58.77 82.7 75.79 27.77 15.61 56.92 23.57 86.66 23.66 29.73-.09 58.88-8.05 86.64-23.66 30.28-17.02 58.1-42.52 82.7-75.79 26.32-35.6 46.91-77.34 61.22-124.07 14.69-47.98 22.14-99.24 22.14-152.37zm-92.2 269.91c-23.68 32.02-50.34 56.49-79.25 72.74-26.09 14.67-53.43 22.16-81.25 22.25-27.82-.09-55.17-7.58-81.27-22.25-28.91-16.25-55.57-40.72-79.24-72.74-25.57-34.58-45.6-75.21-59.55-120.75-14.37-46.95-21.66-97.13-21.66-149.15 0-52.02 7.29-102.2 21.66-149.15 13.93-45.52 33.96-86.15 59.55-120.75 23.66-32.01 50.32-56.49 79.24-72.75 26.09-14.67 53.43-22.16 81.25-22.25 27.82.09 55.17 7.58 81.27 22.25 28.92 16.26 55.58 40.74 79.24 72.75 25.59 34.6 45.62 75.23 59.55 120.75 14.37 46.95 21.66 97.13 21.66 149.15 0 52.02-7.29 102.2-21.66 149.15-13.95 45.53-33.98 86.16-59.54 120.75z"/><path d="M432.71 625.33c-8 0-13.84-3.68-17.79-8.04 3.95 4.37 9.79 8.04 17.79 8.04zM446.36 544.29a205.404 205.404 0 0 1 0 0zM497.58 586.21v.11-.11c0-2.28-.85-2.58-1.6-2.85-.84-.3-1.85-.42-2.96-.41 1.1-.01 2.11.11 2.95.41.76.28 1.61.57 1.61 2.85zM516.84 254.45c0 12.54-9.37 17-18.13 17 8.76 0 18.13-4.46 18.13-17a31.125 31.125 0 0 1 0 0zM423.69 284.65c-11.88 18.17-23.9 50.11-23.9 76.01 0 19.61 6.51 24.34 13.75 27.8 3.3 1.58 4.09 1.96 4.09 6.7v58.67c0 1.38.52 2.72 1.46 3.73l59.14 63.99c2.71 2.93 3.66 6.95 2.48 10.49-.69 2.07-1.52 3.54-6 3.54 4.48 0 5.31-1.47 6-3.54 1.18-3.54.23-7.56-2.48-10.49l-59.14-63.99a5.484 5.484 0 0 1-1.46-3.73v-58.67c0-4.74-.79-5.12-4.09-6.7-7.24-3.46-13.75-8.19-13.75-27.8 0-25.9 12.02-57.84 23.9-76.01 8.23-12.59 29.08-29.85 46.01-41.64-.01-.03-.01-.07-.01-.1 0 .03 0 .07.01.1-16.93 11.79-37.78 29.05-46.01 41.64zM476.08 608.95c0 16.43 15.5 39.83 37.7 56.93 28.31 23.32 88.29 30.98 116.78 33.36-15.16 9.38-44.04 23.09-83.35 23.09 39.31 0 68.19-13.71 83.35-23.09-28.49-2.38-88.47-10.04-116.78-33.36-22.2-17.09-37.7-40.49-37.7-56.93z"/><path d="M741.71 500c0 52.02-7.29 102.2-21.66 149.15-13.95 45.54-33.98 86.17-59.54 120.75-23.68 32.03-50.34 56.49-79.25 72.74-26.09 14.67-53.43 22.16-81.25 22.25-27.82-.09-55.17-7.58-81.27-22.25-28.91-16.25-55.57-40.71-79.24-72.74-25.57-34.58-45.6-75.21-59.55-120.75-14.37-46.95-21.66-97.13-21.66-149.15 0-52.01 7.29-102.2 21.66-149.14 13.93-45.53 33.96-86.16 59.55-120.75 23.66-32.01 50.32-56.49 79.24-72.75 26.09-14.68 53.43-22.17 81.25-22.25 27.82.08 55.17 7.57 81.27 22.25 28.92 16.26 55.58 40.74 79.24 72.75 25.59 34.59 45.62 75.22 59.55 120.75 14.37 46.94 21.66 97.13 21.66 149.14z"/><path d="M432.71 614.33c6.84 0 19.45-10.27 33.64-27.2-14.19 16.93-26.8 27.2-33.64 27.2zM419.38 559.2c-.45 3.78-3.71 6.63-7.59 6.63 3.88 0 7.14-2.85 7.59-6.63 2.69-22.62 14.44-25.99 21.2-25.99-6.76 0-18.51 3.37-21.2 25.99zM391.71 541.45v19.44c0 8.79 7.15 15.94 15.94 15.94-8.79 0-15.94-7.15-15.94-15.94v-19.44c0-3.03 2.46-5.5 5.5-5.5-3.04 0-5.5 2.48-5.5 5.5z"/><path class="st0" d="M276.28 706.02c-1.61-.91-3.2-1.06-4.8-.45l-35.03 13.45 26.35-28.25c1.3-1.39 2.08-2.24 2.36-2.56 1.01-1.23 1.74-2.53 2.18-3.91.77-2.45.71-4.85-.19-7.18-.53-1.37-1.31-2.6-2.35-3.67-1.59-1.6-3.48-2.58-5.67-2.95-1.96-.35-3.89-.16-5.78.56l-47.28 18.15c-1.59.61-2.68 1.79-3.27 3.54-.63 1.77-.61 3.54.08 5.33.7 1.83 1.88 3.19 3.54 4.08 1.61.91 3.21 1.06 4.8.45l35.03-13.45-26.38 28.18c-1.33 1.46-2.1 2.33-2.33 2.63-1.01 1.23-1.74 2.53-2.18 3.91-.76 2.5-.69 4.89.19 7.18.53 1.37 1.31 2.6 2.35 3.67 1.59 1.6 3.48 2.58 5.67 2.95 1.96.35 3.89.16 5.78-.56l47.28-18.15c1.59-.61 2.68-1.79 3.27-3.54.64-1.77.61-3.54-.08-5.33-.7-1.83-1.88-3.19-3.54-4.08zM244.26 647.29c3.92-2.82 6.54-7.05 7.86-12.72.87-3.76.69-8.44-.53-14.05-1.24-5.66-3.04-10.01-5.4-13.06-3.57-4.59-7.72-7.35-12.46-8.28-2.73-.51-6.1-.32-10.12.55l-37.04 8.1c-1.82.4-3.2 1.45-4.14 3.17-.98 1.77-1.24 3.69-.79 5.75.45 2.06 1.49 3.69 3.12 4.89 1.56 1.17 3.26 1.55 5.08 1.15l34.7-7.59c4.69-1.03 8.34-.04 10.96 2.95 1.02 1.18 1.79 2.95 2.3 5.3.44 2.01.53 3.68.27 4.99-.29 1.92-1.19 3.65-2.71 5.19-1.34 1.35-3.39 2.32-6.16 2.93l-34.7 7.59c-1.82.4-3.2 1.45-4.14 3.17-.98 1.77-1.24 3.69-.79 5.75.45 2.06 1.49 3.69 3.12 4.89 1.56 1.17 3.26 1.55 5.08 1.15l37.04-8.1c4.04-.88 7.18-2.12 9.45-3.72z"/><path class="st0" d="m195.52 640.81 17.34-3.79c3.95-.86 6.55-4.66 5.93-8.66-.68-4.35-4.89-7.24-9.2-6.29l-17.34 3.79c-1.82.4-3.2 1.45-4.14 3.16-.98 1.77-1.24 3.69-.79 5.75.45 2.06 1.49 3.69 3.12 4.89 1.56 1.17 3.26 1.55 5.08 1.15zM194.76 571.39c2.98-.23 5.64-1.08 7.99-2.54 2.04-1.24 3.68-2.92 4.91-5.03.71-1.19 1.48-3.04 2.3-5.57l5.09-15.08c.74-2.17 1.56-3.64 2.47-4.4.7-.6 1.45-.92 2.25-.99 1.65-.13 3.16.45 4.55 1.72 1.39 1.32 2.18 3.28 2.38 5.87.17 2.15-.03 4.04-.61 5.66-.67 1.72-1.65 2.83-2.95 3.33-1.97.79-3.03 1.22-3.19 1.28-.88.41-1.69.92-2.45 1.52-1.91 1.62-2.76 3.73-2.56 6.33.11 1.42.39 2.55.83 3.41.44.85 1.09 1.59 1.94 2.21 1.6 1.25 3.54 1.79 5.82 1.62 1.86-.14 3.77-.71 5.73-1.7 5.15-2.61 8.53-6.61 10.14-12.01 1.1-3.78 1.47-7.99 1.11-12.63-.74-9.59-4.18-16.04-10.32-19.35-3.68-1.98-7.97-2.78-12.86-2.4-3.19.25-5.83.99-7.93 2.24-2.15 1.3-3.97 3.26-5.48 5.89-.38.62-.68 1.22-.9 1.8-.22.58-.81 2.29-1.77 5.12l-4.51 13.27c-.65 1.97-1.29 3.37-1.92 4.21-.58.74-1.33 1.14-2.23 1.21-1.01.08-2-.24-2.96-.95-1.65-1.25-2.57-3.17-2.77-5.76-.18-2.3.24-4.15 1.25-5.56.38-.57.84-1.06 1.37-1.47s1.51-1.04 2.94-1.89c1.74-1.02 2.88-2.17 3.42-3.44.54-1.32.75-2.81.62-4.48-.17-2.2-1.08-3.93-2.73-5.18-1.48-1.12-3.25-1.59-5.33-1.43-2.23.17-4.29.9-6.17 2.17-3.25 2.22-5.63 4.96-7.15 8.23-1.65 3.52-2.27 7.95-1.86 13.28.71 9.2 4.06 15.53 10.06 19.01 3.5 1.97 7.34 2.8 11.48 2.48zM179.65 489.7c3.25 2.41 6.96 3.71 11.11 3.9 2.98.14 5.73-.38 8.24-1.54 2.18-.98 4.01-2.44 5.49-4.39.85-1.09 1.84-2.84 2.96-5.24l6.9-14.35c1-2.07 2-3.42 2.99-4.06.77-.5 1.56-.74 2.35-.7 1.65.08 3.09.83 4.3 2.26 1.21 1.48 1.76 3.52 1.64 6.12-.1 2.16-.53 4-1.29 5.54-.88 1.63-1.99 2.61-3.34 2.94-2.05.54-3.16.84-3.32.88-.92.3-1.79.7-2.62 1.21-2.09 1.38-3.2 3.37-3.32 5.96-.07 1.42.07 2.58.4 3.48.33.9.88 1.71 1.65 2.43 1.43 1.44 3.29 2.21 5.58 2.32 1.87.09 3.83-.24 5.89-.98 5.43-1.96 9.28-5.52 11.54-10.67 1.55-3.61 2.44-7.75 2.65-12.4.44-9.61-2.18-16.43-7.87-20.47-3.41-2.42-7.57-3.74-12.47-3.96-3.2-.15-5.91.27-8.15 1.25-2.29 1.03-4.34 2.75-6.16 5.17-.45.57-.82 1.13-1.12 1.68-.29.55-1.09 2.17-2.39 4.86l-6.1 12.61c-.89 1.88-1.69 3.19-2.42 3.94-.67.66-1.46.96-2.36.92-1.01-.05-1.95-.48-2.82-1.31-1.48-1.44-2.16-3.46-2.04-6.06.11-2.3.75-4.09 1.93-5.36.45-.52.96-.95 1.54-1.29.58-.34 1.63-.85 3.15-1.51 1.85-.8 3.13-1.8 3.82-2.99.7-1.24 1.08-2.7 1.16-4.37.1-2.21-.59-4.03-2.07-5.47-1.33-1.29-3.03-1.98-5.11-2.08-2.24-.1-4.37.37-6.39 1.4-3.5 1.8-6.2 4.24-8.1 7.29-2.07 3.29-3.23 7.61-3.48 12.96-.42 9.2 2.13 15.9 7.65 20.08zM189.99 413.5l40.5 7.13c3.26.57 6.23 0 8.91-1.72 2.68-1.67 4.28-4 4.81-7l5.15-29.28c.28-1.59-.16-3.09-1.32-4.49-1.16-1.4-2.69-2.27-4.58-2.6-1.89-.33-3.62-.04-5.19.88-1.57.92-2.49 2.18-2.78 3.77l-3.72 21.17c-.4 2.87-2.17 4-5.31 3.4l-7.01-1.23 3.98-22.62c.29-1.64-.15-3.14-1.32-4.49-1.16-1.4-2.69-2.27-4.58-2.6-1.89-.33-3.62-.04-5.19.88-1.56.87-2.49 2.13-2.78 3.77l-3.98 22.62-6.38-1.12c-3.16-.51-4.44-2.17-3.83-5.01L199 374.3c.28-1.59-.16-3.09-1.32-4.49-1.16-1.4-2.69-2.27-4.58-2.6-1.89-.33-3.62-.04-5.19.88-1.56.87-2.49 2.13-2.78 3.77l-5.06 28.78c-.53 3 .18 5.74 2.13 8.22 1.94 2.52 4.54 4.07 7.79 4.64zM206.23 334.8l45.41 15.06c1.72.57 3.39.35 5.02-.66 1.68-.99 2.83-2.45 3.47-4.36.65-1.96.6-3.83-.15-5.63-.7-1.78-1.91-2.96-3.63-3.53l-18.22-6.04 3.2-9.64c1.1-3.31 2.87-5.1 5.32-5.37.72-.12 2.24.02 4.58.43 3.11.62 6.97 1.18 11.58 1.67 2.18.21 3.83-.02 4.95-.69 1.63-1.01 2.85-2.75 3.67-5.22.65-1.96.57-3.76-.22-5.42-.89-1.9-2.34-3.18-4.37-3.85-.81-.27-2.44-.52-4.89-.77-1.14-.12-4.18-.53-9.11-1.24-2.57-.39-4.3-.6-5.18-.63-1.76-.12-3.31.17-4.67.86-.73.33-1.52 1.12-2.39 2.39-.34-1.51-.69-2.66-1.05-3.45-.7-1.63-1.88-3.15-3.54-4.58-2.21-1.82-4.85-3.24-7.94-4.26-3.65-1.21-7.01-1.5-10.08-.86-3.81.81-7.08 2.98-9.83 6.51-1.73 2.17-3.24 5.21-4.54 9.12l-5.28 15.93c-.96 2.89-.66 5.73.88 8.51 1.47 2.75 3.82 4.66 7.01 5.72zm7.19-16.61 2.11-6.36c.54-1.63 1.03-2.86 1.48-3.7.91-1.72 2.03-2.74 3.38-3.07 1.35-.33 2.85-.22 4.52.34 1.47.49 2.59 1.17 3.37 2.05.81.94 1.18 2.28 1.11 4.01-.07 1.06-.45 2.62-1.13 4.67l-3.06 9.22-9.57-3.17c-2.18-.67-2.92-2.01-2.21-3.99zM254.79 213.38l41.83 28.54c1.41.96 3 1.19 4.77.67 1.81-.48 3.26-1.52 4.34-3.1 1.11-1.62 1.55-3.36 1.34-5.23-.17-1.84-.96-3.24-2.37-4.2l-30.99-21.15 38.22 5.59c1.88.27 3.03.43 3.45.48 1.59.13 3.07-.01 4.46-.43 2.46-.76 4.39-2.17 5.8-4.24.83-1.22 1.39-2.56 1.68-4.02.41-2.21.14-4.33-.81-6.34-.83-1.81-2.08-3.29-3.75-4.43l-41.83-28.54c-1.41-.96-3-1.19-4.77-.67-1.82.48-3.26 1.52-4.34 3.1-1.11 1.62-1.55 3.37-1.34 5.23.17 1.84.96 3.24 2.37 4.2l30.99 21.15-38.18-5.65c-1.95-.26-3.12-.4-3.49-.42-1.59-.13-3.07.01-4.46.43-2.48.8-4.42 2.21-5.8 4.24-.83 1.22-1.39 2.56-1.68 4.02-.41 2.21-.14 4.33.81 6.34.83 1.81 2.08 3.29 3.75 4.43zM321.06 130.22l17.84 45.66c.68 1.74 1.32 2.96 1.92 3.64 1.37 1.56 3.07 2.38 5.09 2.45 1.66.03 3.14-.52 4.43-1.65 1-.87 1.69-1.94 2.08-3.21.35-1.31.39-2.65.09-4.02-.1-.48-.42-1.41-.96-2.77l-2.4-6.09 19.42-17.04 5.72 3.17c.75.41 1.28.68 1.61.83.86.46 1.75.77 2.69.94 2.23.31 4.16-.24 5.78-1.67 1.29-1.13 2.03-2.52 2.21-4.18.19-2.01-.4-3.8-1.77-5.36-.6-.68-1.72-1.47-3.36-2.38l-42.9-23.66c-1.85-1-2.89-1.54-3.1-1.64-1.39-.69-2.79-1.1-4.2-1.21-3.28-.31-6.08.55-8.4 2.59-1.4 1.23-2.41 2.76-3.03 4.58a11.46 11.46 0 0 0-.42 6.33c.14.77.7 2.34 1.66 4.69zm34.6 9.87-11.89 10.44-8.43-21.66 20.32 11.22zM390.25 126.9c5.29 4.65 10.99 6.84 17.09 6.58 4.23-.18 8.37-1.26 12.42-3.25 3.87-1.9 7.13-4.34 9.78-7.3 2.3-2.56 3.89-5.6 4.78-9.12.81-3.13.86-6.04.15-8.72-.4-1.59-.84-2.88-1.34-3.89-.49-1.01-1.22-1.87-2.17-2.59-.82-.67-1.71-1.09-2.67-1.27-1.66-.37-3.57-.03-5.73 1.03-2.2 1.08-3.59 2.33-4.15 3.73-.29.86-.37 2.2-.23 4.04.08 1.5.12 2.64.12 3.42-.05 1.57-.33 2.84-.84 3.8-.92 1.7-2.36 3.03-4.35 4.01-4.4 2.16-8.56 1.44-12.46-2.17-1.96-1.77-3.94-4.69-5.94-8.76-3.97-8.09-5.25-14.18-3.81-18.27.83-2.31 2.44-4.05 4.82-5.22 2.25-1.1 4.37-1.46 6.36-1.08 1.52.32 2.89 1.05 4.1 2.17l1.2 1.1c.59.54 1.48 1.12 2.65 1.73 1.27.69 2.37.98 3.3.87 1.56-.17 2.97-.57 4.25-1.2 2.02-.99 3.3-2.57 3.83-4.73.49-1.9.27-3.79-.65-5.65-1.25-2.54-3.73-4.76-7.46-6.67-3.27-1.66-6.51-2.62-9.71-2.9-4.27-.34-8.96.75-14.06 3.26-7.62 3.74-12.27 9.36-13.95 16.84-1.83 7.85-.45 16.44 4.14 25.78 2.98 6.07 6.49 10.88 10.53 14.43zM447.59 110.33c.27 1.85 1.22 3.3 2.86 4.36 1.69 1.1 3.59 1.5 5.68 1.2 2.09-.3 3.79-1.22 5.11-2.76 1.27-1.48 1.78-3.14 1.51-4.99l-2.98-20.67 22.22-3.2 2.98 20.67c.27 1.85 1.22 3.3 2.86 4.36 1.69 1.1 3.59 1.5 5.68 1.2 2.09-.3 3.79-1.22 5.11-2.76 1.27-1.48 1.78-3.14 1.51-4.99l-7.71-53.53c-.27-1.85-1.22-3.3-2.86-4.36-1.7-1.1-3.59-1.5-5.68-1.2-2.09.3-3.79 1.22-5.11 2.76-1.27 1.48-1.78 3.14-1.51 4.99l2.67 18.53-22.22 3.2-2.67-18.53c-.27-1.85-1.22-3.3-2.86-4.36-1.7-1.1-3.59-1.5-5.68-1.2-2.09.3-3.79 1.22-5.1 2.76-1.27 1.48-1.78 3.14-1.51 4.99l7.7 53.53zM529.03 60.66l12.87 2.81-9.57 43.77c-.41 1.88-.01 3.6 1.2 5.18 1.2 1.63 2.83 2.67 4.89 3.12 2.11.46 4.05.2 5.82-.78 1.76-.93 2.84-2.33 3.25-4.2l9.57-43.77 12.73 2.78c1.68.37 3.27-.02 4.78-1.17s2.48-2.71 2.91-4.69c.43-1.98.2-3.8-.69-5.47s-2.18-2.69-3.85-3.05l-40.77-8.91c-1.68-.37-3.27.02-4.78 1.17-1.51 1.14-2.48 2.71-2.91 4.69-.43 1.98-.2 3.8.69 5.47.9 1.66 2.19 2.68 3.86 3.05zM574.77 105.56c-.87 1.65-1.41 3.57-1.62 5.75-.53 5.75 1.05 10.74 4.75 14.98 2.61 2.94 5.98 5.5 10.1 7.67 8.51 4.48 15.8 5.01 21.88 1.58 3.64-2.06 6.6-5.26 8.89-9.61 1.49-2.83 2.27-5.47 2.33-7.9.04-2.51-.64-5.1-2.06-7.78-.32-.65-.67-1.23-1.04-1.73-.38-.5-1.51-1.91-3.39-4.23l-8.82-10.89c-1.32-1.6-2.17-2.89-2.54-3.87-.31-.89-.25-1.73.17-2.53.47-.9 1.27-1.56 2.38-2 1.94-.73 4.05-.49 6.36.73 2.04 1.07 3.39 2.42 4.04 4.02.28.63.45 1.28.51 1.94s.07 1.83.03 3.5c-.06 2.02.3 3.59 1.08 4.73.83 1.16 1.98 2.13 3.46 2.91 1.95 1.03 3.9 1.18 5.83.45 1.73-.66 3.08-1.9 4.05-3.74 1.04-1.98 1.53-4.11 1.45-6.38-.15-3.93-1.2-7.41-3.16-10.43-2.1-3.28-5.52-6.16-10.25-8.65-8.16-4.3-15.31-4.84-21.44-1.62-3.56 1.92-6.31 4.72-8.25 8.4-1.39 2.64-2.1 5.35-2.11 8.11-.04 2.39.51 4.67 1.64 6.83.63 1.23 1.79 2.87 3.49 4.91l10.05 12.35c1.44 1.79 2.25 3.26 2.41 4.43.13.91.01 1.72-.37 2.43-.77 1.46-2.06 2.44-3.87 2.93-1.86.47-3.93.1-6.24-1.11-1.91-1.01-3.4-2.18-4.46-3.53-1.1-1.49-1.52-2.91-1.24-4.27.38-2.09.58-3.22.62-3.38.12-.96.13-1.92.02-2.88-.36-2.48-1.69-4.32-3.99-5.54-1.26-.66-2.37-1.03-3.32-1.12-.96-.08-1.92.07-2.9.46-1.92.7-3.41 2.05-4.47 4.08zM643.76 175.31c3.11 3 6.5 5.24 10.19 6.72 3.18 1.29 6.58 1.76 10.21 1.4 3.22-.3 5.97-1.24 8.25-2.82 1.36-.91 2.43-1.77 3.21-2.58s1.34-1.78 1.7-2.92c.35-1 .44-1.98.29-2.95-.21-1.69-1.18-3.37-2.91-5.04-1.76-1.7-3.41-2.58-4.92-2.64-.9.02-2.2.4-3.88 1.15-1.39.59-2.45 1.01-3.17 1.27-1.49.49-2.78.65-3.86.5-1.91-.29-3.66-1.19-5.24-2.73-3.53-3.41-4.26-7.56-2.19-12.46 1-2.45 3.07-5.3 6.22-8.56 6.26-6.48 11.56-9.74 15.9-9.78 2.46 0 4.64.92 6.54 2.76 1.8 1.74 2.86 3.61 3.17 5.62.21 1.54 0 3.08-.65 4.6l-.63 1.5c-.31.74-.55 1.77-.72 3.08-.22 1.42-.12 2.56.3 3.4.69 1.41 1.54 2.6 2.57 3.59 1.62 1.57 3.54 2.23 5.75 1.99 1.95-.19 3.66-1.03 5.1-2.53 1.96-2.03 3.21-5.13 3.75-9.28.45-3.64.26-7.01-.57-10.11-1.13-4.13-3.74-8.17-7.83-12.13-6.11-5.9-12.96-8.37-20.57-7.41-8.01.94-15.62 5.16-22.84 12.64-4.71 4.87-8.04 9.81-10 14.81-2.58 6.55-2.71 12.66-.39 18.31 1.55 3.94 3.97 7.47 7.22 10.6zM677.71 210.21c-.3 2 .13 3.89 1.27 5.66 1.14 1.77 2.69 2.94 4.63 3.49 1.87.54 3.59.31 5.16-.7l17.55-11.31 12.16 18.87-17.55 11.31c-1.57 1.01-2.49 2.48-2.77 4.41-.3 2 .13 3.89 1.27 5.66 1.14 1.77 2.69 2.94 4.63 3.49 1.87.54 3.59.31 5.16-.7l45.46-29.3c1.57-1.01 2.49-2.48 2.77-4.41.3-2-.13-3.89-1.27-5.66-1.14-1.77-2.69-2.94-4.63-3.49-1.87-.54-3.59-.31-5.16.7l-15.74 10.14-12.16-18.87 15.74-10.14c1.57-1.01 2.49-2.48 2.77-4.41.3-2-.13-3.89-1.27-5.66-1.14-1.77-2.69-2.94-4.63-3.49-1.87-.54-3.59-.31-5.16.7l-45.46 29.3c-1.57 1.01-2.49 2.48-2.77 4.41zM723.22 278.86c-1.62 1.57-2.65 3.42-3.09 5.53-.43 1.85-.31 3.64.36 5.38.67 1.74 1.8 3.17 3.38 4.3 1.75 1.27 3.75 1.94 6.01 2.02.75.03 2.29-.15 4.6-.52l37.87-5.87-32.01 21.04c-1.96 1.28-3.21 2.19-3.75 2.71-1.62 1.57-2.65 3.42-3.09 5.53-.41 1.9-.28 3.71.39 5.45.67 1.74 1.8 3.17 3.38 4.3 1.75 1.27 3.74 1.92 5.98 1.95.8.01 2.34-.17 4.6-.52l46.76-7.73c1.5-.26 2.52-.5 3.07-.71 1.64-.63 2.89-1.7 3.75-3.18 1.03-1.77 1.2-3.57.49-5.4-.32-.82-.83-1.55-1.53-2.17-1.18-1.12-2.62-1.75-4.33-1.88-.62.03-1.71.16-3.28.4l-38.09 6.19 28.72-18.67c2.04-1.37 3.36-2.32 3.95-2.87 1.7-1.66 2.79-3.58 3.26-5.76.39-1.94.25-3.8-.44-5.59a9.903 9.903 0 0 0-3.46-4.5c-1.88-1.32-3.98-2.01-6.29-2.07-.8-.01-2.41.19-4.83.6l-33.84 5.42 32.36-21.02c1.01-.65 1.62-1.05 1.86-1.19.92-.72 1.63-1.55 2.13-2.48.88-1.71.99-3.43.32-5.17-.64-1.65-1.8-2.8-3.48-3.47-1.77-.74-3.58-.75-5.42-.04-.55.21-1.46.72-2.75 1.54l-39.81 25.71c-1.96 1.31-3.21 2.22-3.75 2.74zM804.59 367.44 756.15 360c-1.85-.28-3.22-.34-4.11-.16-2.04.4-3.6 1.46-4.67 3.18-.86 1.42-1.12 2.97-.79 4.66.26 1.3.84 2.43 1.74 3.41.95.96 2.1 1.66 3.43 2.1.47.16 1.43.34 2.88.55l6.47.97 5.02 25.34-5.61 3.36c-.73.44-1.23.77-1.52.98-.82.51-1.54 1.13-2.16 1.85-1.39 1.78-1.87 3.72-1.45 5.84.33 1.68 1.17 3.02 2.51 4.01 1.65 1.17 3.49 1.56 5.53 1.16.89-.18 2.14-.75 3.74-1.72l41.97-25.27c1.79-1.1 2.78-1.73 2.97-1.86 1.3-.86 2.35-1.87 3.15-3.03 1.92-2.68 2.57-5.54 1.97-8.57-.36-1.83-1.18-3.47-2.44-4.92a11.392 11.392 0 0 0-5.27-3.53c-.76-.26-2.4-.56-4.92-.91zm-25.87 25-3.07-15.52 22.97 3.56-19.9 11.96zM813.16 435.84l-47.75 2.96c-1.81.11-3.28.94-4.41 2.49-1.19 1.55-1.72 3.33-1.59 5.33.13 2.06.88 3.78 2.24 5.17 1.32 1.39 2.88 2.03 4.69 1.92l19.16-1.19.63 10.14c.21 3.48-.76 5.8-2.94 6.97-.62.38-2.09.82-4.41 1.31-3.12.59-6.91 1.51-11.37 2.77-2.1.62-3.54 1.45-4.33 2.48-1.13 1.54-1.62 3.61-1.46 6.21.13 2.06.87 3.71 2.23 4.95 1.53 1.43 3.36 2.08 5.49 1.95.85-.05 2.46-.42 4.82-1.11 1.1-.31 4.07-1.06 8.92-2.25 2.53-.6 4.21-1.05 5.05-1.34 1.68-.55 3.01-1.39 4.01-2.53.55-.58.99-1.61 1.33-3.11.88 1.27 1.63 2.21 2.26 2.81 1.25 1.25 2.92 2.23 4.99 2.94 2.72.86 5.71 1.2 8.96.99 3.83-.24 7.06-1.22 9.67-2.96 3.23-2.17 5.46-5.4 6.69-9.71.8-2.66 1.07-6.04.81-10.15l-1.04-16.75c-.19-3.04-1.52-5.56-4-7.57-2.41-2.03-5.3-2.93-8.65-2.72zm-.06 28.76c-.2 1.93-.87 3.3-1.99 4.1-1.13.81-2.57 1.27-4.32 1.37-1.54.1-2.84-.12-3.89-.64-1.1-.57-1.95-1.67-2.53-3.31-.33-1.01-.56-2.6-.69-4.75l-.6-9.7 10.06-.62c2.29-.19 3.47.77 3.54 2.88l.41 6.68c.11 1.72.11 3.05.01 3.99zM825.75 518.53c-2.12-2.33-4.78-3.61-7.97-3.86l-49.14-3.76c-1.7-.13-3.19.47-4.47 1.8-1.33 1.32-2.07 2.94-2.22 4.85-.15 1.96.33 3.69 1.45 5.2 1.06 1.51 2.44 2.33 4.14 2.46l42.83 3.28-38.92 6.39c-2.39.41-3.91.73-4.57.98-2.14.77-3.84 2.02-5.1 3.74a9.297 9.297 0 0 0-1.91 5.02c-.14 1.86.23 3.61 1.12 5.25 1.03 1.95 2.52 3.44 4.47 4.48.66.39 2.12.95 4.37 1.66l37.49 12.25-42.83-3.28c-1.7-.13-3.19.47-4.47 1.8-1.33 1.32-2.07 2.97-2.22 4.92-.15 1.91.34 3.62 1.45 5.13 1.06 1.51 2.44 2.33 4.14 2.46l49.14 3.76c3.19.24 6.01-.62 8.46-2.6 2.74-2.2 4.24-5.06 4.51-8.59.17-2.25-.25-4.45-1.26-6.59-1.29-2.71-3.3-4.8-6.02-6.29-.72-.4-1.32-.71-1.82-.91-.49-.21-1.86-.67-4.11-1.38l-32.17-10.51 33.4-5.49 2.6-.46c1.41-.24 2.61-.51 3.59-.83 2.98-1.15 5.28-2.94 6.91-5.38 1.32-1.92 2.07-4 2.24-6.25.31-3.58-.74-6.66-3.11-9.25zM806.28 612.28l-40.14-8.91c-3.23-.72-6.22-.28-8.98 1.32-2.75 1.55-4.45 3.81-5.11 6.78l-6.45 29.03c-.35 1.58.02 3.1 1.12 4.55s2.58 2.38 4.46 2.8c1.87.42 3.62.2 5.22-.65 1.61-.85 2.59-2.06 2.94-3.64l4.66-20.98c.52-2.85 2.34-3.9 5.46-3.16l6.95 1.54-4.98 22.42c-.36 1.63.01 3.14 1.12 4.55 1.1 1.45 2.58 2.38 4.46 2.8 1.87.42 3.62.2 5.22-.65 1.6-.8 2.58-2.02 2.94-3.64l4.98-22.42 6.33 1.41c3.13.65 4.34 2.37 3.6 5.17l-4.55 20.48c-.35 1.58.02 3.1 1.12 4.55s2.58 2.38 4.46 2.8c1.88.42 3.62.2 5.23-.65 1.6-.8 2.58-2.02 2.94-3.64l6.33-28.52c.66-2.97.07-5.74-1.76-8.31-1.81-2.65-4.34-4.31-7.57-5.03zM788.53 683.97l-44.82-16.74c-1.7-.63-3.38-.48-5.04.47-1.71.93-2.92 2.34-3.63 4.22-.72 1.93-.74 3.81-.05 5.64.63 1.81 1.8 3.03 3.5 3.66l17.99 6.72-3.55 9.52c-1.22 3.26-3.06 4.99-5.52 5.17-.72.1-2.24-.1-4.56-.6-3.09-.73-6.92-1.43-11.51-2.1-2.17-.29-3.83-.12-4.97.5-1.66.95-2.95 2.64-3.86 5.08-.72 1.93-.71 3.74.02 5.43.82 1.93 2.22 3.27 4.22 4.01.8.3 2.42.61 4.85.95 1.14.16 4.15.69 9.06 1.58 2.55.48 4.27.76 5.16.83 1.75.18 3.32-.04 4.7-.68.74-.3 1.56-1.07 2.48-2.29.29 1.52.59 2.68.92 3.49.63 1.65 1.76 3.22 3.36 4.71 2.14 1.9 4.73 3.42 7.78 4.55 3.6 1.34 6.95 1.75 10.04 1.24 3.83-.66 7.19-2.71 10.06-6.14 1.81-2.1 3.43-5.08 4.88-8.94l5.87-15.72c1.07-2.85.88-5.7-.57-8.54-1.39-2.84-3.66-4.84-6.81-6.02zm-7.81 16.33-2.34 6.27c-.6 1.61-1.14 2.82-1.62 3.64-.97 1.68-2.13 2.66-3.49 2.94s-2.86.11-4.51-.5c-1.45-.54-2.55-1.26-3.29-2.17-.78-.97-1.1-2.32-.96-4.05.11-1.06.54-2.6 1.3-4.62l3.4-9.1 9.44 3.53c2.17.75 2.86 2.11 2.07 4.06z"/><circle class="st0" cx="803.29" cy="355.74" r="6.5"/><circle class="st0" cx="812" cy="400.46" r="6.5"/><circle class="st0" cx="700.33" cy="808.33" r="7.73"/><circle class="st0" cx="305.96" cy="817" r="7.73"/><path class="st0" d="M410.96 866.58c-4.25 0-14.42.75-28.33 2.42-13.92 1.67-18.25 3.21-18.25 8.33 0 3.5.92 4.67 5.08 4.67 4.17 0 31.58-2.33 31.58-2.33-1.75 6.08-24.58 35.5-24.58 41.5 0 .75.17 1.52.46 2.29 2.63 6.9 12.3 7.33 15.9.89 9.34-16.73 27.05-48.91 27.05-52.38.01-4.72-4.66-5.39-8.91-5.39zM462.38 878.08c-13.17 0-28 7.5-28 24.58 0 26.17 34.14 21.73 34.14 21.73-4.81 5-29.81 14.9-29.81 19.36 0 4.45 5.25 6.62 8.17 6.62 9 0 24.83-10.54 34-18.12 9.16-7.59 12.75-17.5 12.75-27.17 0-20.25-18.09-27-31.25-27zm1.93 34.88c-7.24 0-13.17-2.65-13.17-10.36 0-7.72 7.29-11.85 13.17-11.85 4.1 0 11.38 1.36 11.38 9.93 0 8.58-4.13 12.28-11.38 12.28zM562.71 907.92s5-5.33 5-11.33c0-17.08-13.42-19.25-23-19.25-9.3 0-30.5 3.92-30.5 18.83 0 14.92 10.25 16.71 10.25 16.71s-6.5 7.38-6.5 14.13c0 14.08 12.83 21.41 26.75 21.41s32.83-6.66 32.83-21.33c0-14.67-14.83-19.17-14.83-19.17zm-31.42-10.25c0-5.91 5.34-7.58 10.25-7.58 3.84 0 9.59 1.33 9.59 6.58s-4.09 8.59-9.59 8.59-10.25-1.68-10.25-7.59zm16.17 37.5c-4.17 0-11.33-1.75-11.33-9.29s7.58-9.29 11.33-9.29c5.25 0 11.17 3 11.17 9.83 0 6.84-7 8.75-11.17 8.75zM626.88 870.42c-9 0-22.1 10.85-22.1 10.85l-2.67-10.75s25.35-10.1 25.35-15.27c0-2.42-.92-7.08-7.33-7.08-4.76 0-22.76 10.29-31.71 15.59a6.033 6.033 0 0 0-2.14 8.22l11.4 22.42c1.8 3.54 6.52 4.27 9.33 1.46 4.85-4.87 11.85-10.93 16.54-10.93 7.83 0 12.42 5.42 12.42 11.92s-6 10.75-11.25 10.75-7.75-4.92-11.42-4.92-6.92 4-6.92 7.83 4.17 9.58 14.92 9.58 31.17-7.67 31.17-25.17-16.59-24.5-25.59-24.5zM478.51 355.73a5.98 5.98 0 0 0-3.52 5.6 5.98 5.98 0 0 0 3.76 5.43l47.2 18.9-11.67 50.15c-.52 2.24.29 4.58 2.07 6.03a6.022 6.022 0 0 0 6.32.77l34.04-15.94 27.3 50.52a6.03 6.03 0 0 0 5.28 3.15 5.998 5.998 0 0 0 5.94-5.12l10.15-68.49 60.84-22.6a6.004 6.004 0 0 0 3.91-5.54 6.011 6.011 0 0 0-3.76-5.65l-47.48-19.17 17.89-49.91c.85-2.37.12-5.02-1.82-6.63a6.008 6.008 0 0 0-6.85-.58l-48.59 28.28-31.67-55.88a6.018 6.018 0 0 0-6.55-2.9 6.01 6.01 0 0 0-4.66 5.43l-4.24 59.77-53.89 24.38zm62.09-14.93a5.992 5.992 0 0 0 3.51-5.04l3.09-43.52 24.87 43.88a6 6 0 0 0 3.66 2.84c1.54.41 3.2.2 4.58-.61l39.62-23.06-14.29 39.85a6.012 6.012 0 0 0 3.41 7.59l38.47 15.53-49.65 18.45a6.02 6.02 0 0 0-3.85 4.74L586 455.62l-21.43-39.64c-1.08-2-3.14-3.15-5.28-3.15-.85 0-1.72.18-2.54.57l-27.98 13.09 10.03-43.13c.67-2.89-.86-5.83-3.61-6.93l-38.91-15.58 44.32-20.05z"/><path class="st2" d="M535.19 376.43a5.996 5.996 0 0 1 3.61 6.93l-10.03 43.13 27.98-13.09c.82-.39 1.69-.57 2.54-.57 2.14 0 4.2 1.15 5.28 3.15L586 455.62l8.02-54.17a6.02 6.02 0 0 1 3.85-4.74l49.65-18.45-38.47-15.53a6.012 6.012 0 0 1-3.41-7.59l14.29-39.85-39.62 23.06a6.014 6.014 0 0 1-4.58.61 6 6 0 0 1-3.66-2.84l-24.87-43.88-3.09 43.52a5.992 5.992 0 0 1-3.51 5.04l-44.32 20.05 38.91 15.58z"/><path class="st0" d="m703.71 533.21-60.75 22.54-27.86-61.88a6.004 6.004 0 0 0-11.35 1.24l-15.3 73.75-44.73 26.65a6.004 6.004 0 0 0-2.89 5.8 5.99 5.99 0 0 0 4.06 5.04l41.64 13.93-8.58 36.51c-.59 2.5.48 5.1 2.66 6.46s4.98 1.19 6.97-.44l43.43-35.41 51.59 37.45c1.05.77 2.29 1.15 3.53 1.15 1.22 0 2.43-.37 3.48-1.12a5.982 5.982 0 0 0 2.26-6.62l-19.78-65.24 38.48-50.56a6 6 0 0 0 .04-7.2 5.994 5.994 0 0 0-6.9-2.05zm-43.02 54.99a5.977 5.977 0 0 0-.97 5.37l15.49 51.09-40.89-29.69a6.037 6.037 0 0 0-3.53-1.14c-1.34 0-2.69.45-3.79 1.35l-33.33 27.18 5.8-24.66a6 6 0 0 0-3.94-7.06l-34.43-11.52 35.76-21.3a5.985 5.985 0 0 0 2.81-3.94l12.08-58.23 22.57 50.14c1.3 2.88 4.6 4.26 7.56 3.16l46.62-17.3-27.81 36.55z"/><path class="st2" d="m634.32 565.8-22.57-50.14-12.08 58.23a5.985 5.985 0 0 1-2.81 3.94l-35.76 21.3 34.43 11.52a6 6 0 0 1 3.94 7.06l-5.8 24.66L627 615.18c1.1-.9 2.45-1.35 3.79-1.35 1.24 0 2.47.38 3.53 1.14l40.89 29.69-15.49-51.09c-.56-1.84-.2-3.84.97-5.37l27.81-36.55-46.62 17.3a5.993 5.993 0 0 1-7.56-3.15zM516.84 254.45c0-.77-.02-1.51-.07-2.2-7.48 5.96-16.41 12.77-25 18.55 2.19.65 4.55.65 6.94.65 8.76 0 18.13-4.46 18.13-17zM480.66 242.08c.11 2.32.26 4.46.45 6.43.61 6.33 1.62 10.91 2.94 14.23 8.46-5.62 17.79-12.68 25.91-19.14-3.67-1.16-9.25-1.72-17.72-1.76-.42-.01-.85-.01-1.28-.01-3.49 0-6.94.09-10.3.25z"/><path class="st0" d="M402.61 396.6a5.505 5.505 0 0 0 7.76.27c2.22-2.07 2.35-5.55.29-7.77-1-1.07-6.29-6.43-12.7-6.43-1.44 0-5.27 0-24.06 13.89-4.32 3.2-18.95 14.26-25.97 22.56a5.49 5.49 0 0 0 .65 7.75c1.03.88 2.29 1.3 3.54 1.3 1.57 0 3.12-.66 4.21-1.95 9.05-10.71 36.02-30.15 42.02-32.49 1.17.28 3.12 1.66 4.26 2.87z"/><path class="st2" d="M513.78 665.89c-22.2-17.1-37.7-40.5-37.7-56.93 0-.48.01-.94.03-1.4.55-13.33 9.01-15.99 14.81-17.56 5.37-1.46 6.61-1.77 6.66-3.68v-.11c0-2.28-.85-2.58-1.6-2.85-.84-.3-1.85-.42-2.95-.41-4.79.06-11.35 2.74-13.53 5.46-13.31 16.82-32.25 36.92-46.78 36.92-8 0-13.84-3.68-17.79-8.04-.24 1.16-.4 2.27-.47 3.3-.21 2.9-2.62 5.12-5.48 5.12-.13 0-.26-.01-.39-.02a5.506 5.506 0 0 1-5.11-5.87c.96-13.62 12.14-32.94 12.61-33.76a5.502 5.502 0 0 1 7.52-1.98 5.494 5.494 0 0 1 1.99 7.52c-1.38 2.37-3.86 7.03-6.12 12.24v.01c.13.4 3.46 10.48 13.24 10.48 6.84 0 19.45-10.27 33.64-27.2-12.74-12.26-17.96-29.09-19.99-42.84-1.78-.05-3.7-.08-5.78-.08-6.89 0-9.39 8.85-10.27 16.28-1.11 9.32-9.07 16.34-18.52 16.34h-4.14c-8.79 0-15.94-7.15-15.94-15.94v-19.44c0-3.03 2.46-5.5 5.5-5.5s5.5 2.47 5.5 5.5v19.44c0 2.73 2.21 4.94 4.94 4.94h4.14c3.88 0 7.14-2.85 7.59-6.63 2.69-22.62 14.44-25.99 21.2-25.99 4.12 0 7.66.12 10.77.3.05 0 .11 0 .16.01.11.01.22.01.32.02 4.95.3 8.77.77 12.11 1.18 3.95.48 7.06.86 10.77.86 4.48 0 5.31-1.47 6-3.54 1.18-3.54.23-7.56-2.48-10.49l-59.14-63.99a5.484 5.484 0 0 1-1.46-3.73v-58.67c0-4.74-.79-5.12-4.09-6.7-7.24-3.46-13.75-8.19-13.75-27.8 0-25.9 12.02-57.84 23.9-76.01 8.23-12.59 29.08-29.85 46.01-41.64-.01-.03-.01-.07-.01-.1-124.25 13.02-158.23 140.16-158.23 216.92 0 103.78 51.8 167.6 95.25 202.85 53.93 43.77 113.57 59.65 140.5 59.65 39.31 0 68.19-13.71 83.35-23.09-28.5-2.38-88.48-10.04-116.79-33.35zM356.33 426.21a5.485 5.485 0 0 1-4.21 1.95c-1.25 0-2.51-.42-3.54-1.3a5.49 5.49 0 0 1-.65-7.75c7.02-8.3 21.65-19.36 25.97-22.56 18.79-13.89 22.62-13.89 24.06-13.89 6.41 0 11.7 5.36 12.7 6.43 2.06 2.22 1.93 5.7-.29 7.77a5.505 5.505 0 0 1-7.76-.27c-1.14-1.2-3.09-2.58-4.26-2.87-6 2.34-32.97 21.78-42.02 32.49zm29.34.83c-2.11 1.77-3.79 3.47-4.76 4.96a5.518 5.518 0 0 1-4.62 2.51c-1.03 0-2.07-.29-2.99-.89-2.55-1.65-3.27-5.06-1.62-7.61 6.77-10.43 29.84-22.4 32.45-23.74 2.7-1.38 6.01-.3 7.39 2.4 1.39 2.71.31 6.02-2.39 7.4-2.57 1.31-5.7 3.04-8.94 4.97a9.877 9.877 0 0 1 5.15 8.68c0 5.45-4.43 9.87-9.88 9.87-5-.01-9.14-3.72-9.79-8.55z"/><path class="st0" d="M405.34 425.71c0-3.75-2.08-7-5.15-8.68 3.24-1.93 6.37-3.66 8.94-4.97a5.493 5.493 0 0 0 2.39-7.4c-1.38-2.7-4.69-3.78-7.39-2.4-2.61 1.34-25.68 13.31-32.45 23.74-1.65 2.55-.93 5.96 1.62 7.61.92.6 1.96.89 2.99.89 1.8 0 3.56-.89 4.62-2.51.97-1.49 2.65-3.19 4.76-4.96.65 4.83 4.79 8.55 9.79 8.55 5.45 0 9.88-4.41 9.88-9.87z"/><path class="st0" d="M646.5 689.26c-.92-.03-91.62-3.67-125.79-31.91l-.15-.12c-21.74-16.72-33.48-37.35-33.48-48.27 0-6.13 1.13-6.83 6.71-8.34 5.09-1.37 14.79-3.6 14.79-14.4 0-6.4-3.25-11.21-8.94-13.22-8.1-2.86-19.57.63-26.02 5.87-9.63-9.5-14.04-22.54-16-33.81 1.78.19 3.41.38 4.98.58 4.15.51 7.73.95 12.11.95 8.47 0 14-3.72 16.44-11.07 2.44-7.34.59-15.55-4.84-21.42l-57.68-62.41v-56.52c0-11.68-6.23-14.65-10.35-16.62-4.02-1.92-7.49-3.58-7.49-17.88 0-23.49 11.39-53.6 22.11-69.99 6.61-10.11 23.2-24.3 38.09-35.13.87 5.25 2.1 9.53 3.67 13-3.11 1.74-5.94 3.1-8.32 3.92-2.88.99-4.4 4.12-3.41 6.99a5.489 5.489 0 0 0 5.2 3.71c.59 0 1.19-.09 1.79-.3 3.29-1.13 7.13-3.02 11.27-5.4 4.66 3.8 10.57 4.99 17.52 4.99 17.15 0 29.13-11.51 29.13-28 0-3.91-.56-7.18-1.6-9.91 4.75-3.94 7.88-6.66 8.34-7.06 2.28-2 2.52-5.48.53-7.76-2-2.29-5.47-2.53-7.77-.54-2.05 1.79-4.78 4.12-7.97 6.77-6.93-4.53-17.35-5.12-28.41-5.12-150.38 0-190.5 143.95-190.5 229 0 108.12 54.01 174.63 99.32 211.4 24.24 19.67 52.42 36.02 81.49 47.28 24.32 9.42 48.36 14.82 65.94 14.82 63.63 0 101.19-33.08 102.76-34.49a5.49 5.49 0 0 0 1.49-5.97c-.76-2.1-2.73-3.55-4.96-3.62zM516.84 254.45c0 12.54-9.37 17-18.13 17-2.39 0-4.75 0-6.94-.65 8.59-5.78 17.52-12.59 25-18.55.05.69.07 1.43.07 2.2zm-24.6-12.6c8.47.04 14.05.6 17.72 1.76-8.12 6.46-17.45 13.52-25.91 19.14-1.32-3.32-2.33-7.9-2.94-14.23-.19-1.97-.34-4.11-.45-6.43 3.36-.17 6.81-.25 10.3-.25.43-.01.86-.01 1.28.01zm54.97 480.48c-26.93 0-86.57-15.88-140.5-59.65-43.45-35.25-95.25-99.07-95.25-202.85 0-76.76 33.98-203.9 158.23-216.92 0 .03 0 .07.01.1-16.93 11.79-37.78 29.05-46.01 41.64-11.88 18.17-23.9 50.11-23.9 76.01 0 19.61 6.51 24.34 13.75 27.8 3.3 1.58 4.09 1.96 4.09 6.7v58.67c0 1.38.52 2.72 1.46 3.73l59.14 63.99c2.71 2.93 3.66 6.95 2.48 10.49-.69 2.07-1.52 3.54-6 3.54-3.71 0-6.82-.38-10.77-.86-3.34-.41-7.16-.88-12.11-1.18-.1-.01-.21-.01-.32-.02-.05-.01-.11-.01-.16-.01-3.11-.18-6.65-.3-10.77-.3-6.76 0-18.51 3.37-21.2 25.99-.45 3.78-3.71 6.63-7.59 6.63h-4.14c-2.73 0-4.94-2.21-4.94-4.94v-19.44c0-3.03-2.46-5.5-5.5-5.5s-5.5 2.47-5.5 5.5v19.44c0 8.79 7.15 15.94 15.94 15.94h4.14c9.45 0 17.41-7.02 18.52-16.34.88-7.43 3.38-16.28 10.27-16.28 2.08 0 4 .03 5.78.08 2.03 13.75 7.25 30.58 19.99 42.84-14.19 16.93-26.8 27.2-33.64 27.2-9.78 0-13.11-10.08-13.24-10.48v-.01c2.26-5.21 4.74-9.87 6.12-12.24 1.53-2.63.64-5.99-1.99-7.52a5.502 5.502 0 0 0-7.52 1.98c-.47.82-11.65 20.14-12.61 33.76a5.506 5.506 0 0 0 5.11 5.87c.13.01.26.02.39.02 2.86 0 5.27-2.22 5.48-5.12.07-1.03.23-2.14.47-3.3 3.95 4.36 9.79 8.04 17.79 8.04 14.53 0 33.47-20.1 46.78-36.92 2.19-2.71 8.75-5.39 13.53-5.46 1.11-.01 2.12.11 2.96.41.75.27 1.6.57 1.6 2.85v.11c-.04 1.91-1.29 2.22-6.66 3.68-5.8 1.57-14.26 4.22-14.81 17.56-.02.45-.03.92-.03 1.4 0 16.43 15.5 39.83 37.7 56.93 28.31 23.32 88.29 30.98 116.78 33.36-15.16 9.38-44.04 23.08-83.35 23.08z"/></g></switch></svg>