<svg xmlns="http://www.w3.org/2000/svg" version="1.1" xmlns:xlink="http://www.w3.org/1999/xlink" xmlns:svgjs="http://svgjs.com/svgjs" width="960" height="960"><svg width="960" height="960" xmlns="http://www.w3.org/2000/svg"><path fill="#dd9d37" d="M731.37 142.93c-32.52-43.99-70.44-78.57-112.69-102.78C574.79 15 528.13 2.2 479.99 2.11 431.87 2.2 385.21 15 341.32 40.15c-42.25 24.21-80.17 58.79-112.69 102.78C161.99 233.06 125.29 352.77 125.29 480c0 127.23 36.7 246.94 103.34 337.08 32.52 43.98 70.44 78.56 112.69 102.77 43.89 25.15 90.55 37.95 138.69 38.04 48.12-.09 94.78-12.89 138.67-38.04 42.25-24.21 80.17-58.79 112.69-102.77C798.01 726.94 834.71 607.23 834.71 480c0-127.23-36.7-246.94-103.34-337.07Zm-8.85 667.62C657.64 898.3 571.51 946.71 480.01 946.9c-91.52-.18-177.65-48.6-242.53-136.35C172.23 722.29 136.29 604.9 136.29 480s35.94-242.28 101.19-330.54C302.36 61.7 388.49 13.29 479.99 13.11c91.52.18 177.65 48.6 242.53 136.36C787.77 237.73 823.71 355.11 823.71 480c0 124.9-35.94 242.29-101.19 330.55Z"></path><path fill="#001058" d="M722.52 149.46C657.64 61.7 571.51 13.29 479.99 13.11c-91.5.18-177.63 48.59-242.51 136.35C172.23 237.73 136.29 355.11 136.29 480c0 124.89 35.94 242.29 101.19 330.55 64.88 87.75 151.01 136.16 242.53 136.34 91.5-.18 177.63-48.59 242.51-136.34C787.77 722.29 823.71 604.89 823.71 480c0-124.89-35.94-242.27-101.19-330.54Zm-11.95 482.91c-14.31 46.74-34.9 88.48-61.22 124.07-24.6 33.27-52.42 58.77-82.7 75.8-27.76 15.61-56.91 23.56-86.64 23.65-29.74-.09-58.89-8.04-86.66-23.65-30.28-17.03-58.1-42.53-82.7-75.8-26.32-35.59-46.91-77.33-61.22-124.07-14.69-47.99-22.14-99.25-22.14-152.37 0-53.12 7.45-104.38 22.14-152.37 14.3-46.73 34.9-88.46 61.22-124.07 24.6-33.27 52.43-58.77 82.7-75.8 27.76-15.61 56.91-23.57 86.64-23.65 29.74.08 58.89 8.04 86.66 23.65 30.27 17.03 58.1 42.53 82.7 75.8 26.32 35.61 46.92 77.34 61.22 124.07 14.69 47.99 22.14 99.25 22.14 152.37 0 53.12-7.45 104.38-22.14 152.37Z"></path><path fill="#dd9d37" d="M732.71 480c0-53.12-7.45-104.38-22.14-152.37-14.3-46.73-34.9-88.47-61.22-124.07-24.6-33.28-52.43-58.78-82.7-75.8-27.77-15.61-56.92-23.57-86.66-23.66-29.73.09-58.88 8.05-86.64 23.66-30.27 17.02-58.1 42.52-82.7 75.8-26.32 35.6-46.92 77.34-61.22 124.07-14.69 47.99-22.14 99.25-22.14 152.37 0 53.12 7.45 104.38 22.14 152.37 14.31 46.73 34.9 88.47 61.22 124.07 24.6 33.27 52.42 58.77 82.7 75.79 27.77 15.61 56.92 23.57 86.66 23.66 29.73-.09 58.88-8.05 86.64-23.66 30.28-17.02 58.1-42.52 82.7-75.79 26.32-35.6 46.91-77.34 61.22-124.07 14.69-47.98 22.14-99.24 22.14-152.37Zm-92.2 269.91c-23.68 32.02-50.34 56.49-79.25 72.74-26.09 14.67-53.43 22.16-81.25 22.25-27.82-.09-55.17-7.58-81.27-22.25-28.91-16.25-55.57-40.72-79.24-72.74-25.57-34.58-45.6-75.21-59.55-120.75-14.37-46.95-21.66-97.13-21.66-149.15 0-52.02 7.29-102.2 21.66-149.15 13.93-45.52 33.96-86.15 59.55-120.75 23.66-32.01 50.32-56.49 79.24-72.75 26.09-14.67 53.43-22.16 81.25-22.25 27.82.09 55.17 7.58 81.27 22.25 28.92 16.26 55.58 40.74 79.24 72.75 25.59 34.6 45.62 75.23 59.55 120.75 14.37 46.95 21.66 97.13 21.66 149.15 0 52.02-7.29 102.2-21.66 149.15-13.95 45.53-33.98 86.16-59.54 120.75Z"></path><path d="M412.71 605.33c-8 0-13.84-3.68-17.79-8.04 3.95 4.37 9.79 8.04 17.79 8.04ZM426.36 524.29a205.457 205.457 0 0 1 0 0ZM477.58 566.21v.11-.11c0-2.28-.85-2.58-1.6-2.85-.84-.3-1.85-.42-2.96-.41 1.1-.01 2.11.11 2.95.41.76.28 1.61.57 1.61 2.85ZM496.84 234.45c0 12.54-9.37 17-18.13 17 8.76 0 18.13-4.46 18.13-17a31.133 31.133 0 0 1 0 0ZM403.69 264.65c-11.88 18.17-23.9 50.11-23.9 76.01 0 19.61 6.51 24.34 13.75 27.8 3.3 1.58 4.09 1.96 4.09 6.7v58.67c0 1.38.52 2.72 1.46 3.73l59.14 63.99c2.71 2.93 3.66 6.95 2.48 10.49-.69 2.07-1.52 3.54-6 3.54 4.48 0 5.31-1.47 6-3.54 1.18-3.54.23-7.56-2.48-10.49l-59.14-63.99a5.484 5.484 0 0 1-1.46-3.73v-58.67c0-4.74-.79-5.12-4.09-6.7-7.24-3.46-13.75-8.19-13.75-27.8 0-25.9 12.02-57.84 23.9-76.01 8.23-12.59 29.08-29.85 46.01-41.64-.01-.03-.01-.07-.01-.1 0 .03 0 .07.01.1-16.93 11.79-37.78 29.05-46.01 41.64ZM456.08 588.95c0 16.43 15.5 39.83 37.7 56.93 28.31 23.32 88.29 30.98 116.78 33.36-15.16 9.38-44.04 23.09-83.35 23.09 39.31 0 68.19-13.71 83.35-23.09-28.49-2.38-88.47-10.04-116.78-33.36-22.2-17.09-37.7-40.49-37.7-56.93Z"></path><path d="M721.71 480c0 52.02-7.29 102.2-21.66 149.15-13.95 45.54-33.98 86.17-59.54 120.75-23.68 32.03-50.34 56.49-79.25 72.74-26.09 14.67-53.43 22.16-81.25 22.25-27.82-.09-55.17-7.58-81.27-22.25-28.91-16.25-55.57-40.71-79.24-72.74-25.57-34.58-45.6-75.21-59.55-120.75-14.37-46.95-21.66-97.13-21.66-149.15 0-52.01 7.29-102.2 21.66-149.14 13.93-45.53 33.96-86.16 59.55-120.75 23.66-32.01 50.32-56.49 79.24-72.75 26.09-14.68 53.43-22.17 81.25-22.25 27.82.08 55.17 7.57 81.27 22.25 28.92 16.26 55.58 40.74 79.24 72.75 25.59 34.59 45.62 75.22 59.55 120.75 14.37 46.94 21.66 97.13 21.66 149.14Z"></path><path d="M412.71 594.33c6.84 0 19.45-10.27 33.64-27.2-14.19 16.93-26.8 27.2-33.64 27.2ZM399.38 539.2c-.45 3.78-3.71 6.63-7.59 6.63 3.88 0 7.14-2.85 7.59-6.63 2.69-22.62 14.44-25.99 21.2-25.99-6.76 0-18.51 3.37-21.2 25.99ZM371.71 521.45v19.44c0 8.79 7.15 15.94 15.94 15.94-8.79 0-15.94-7.15-15.94-15.94v-19.44c0-3.03 2.46-5.5 5.5-5.5-3.04 0-5.5 2.48-5.5 5.5Z"></path><path fill="#dd9d37" d="M458.51 335.73a5.98 5.98 0 0 0-3.52 5.6 5.98 5.98 0 0 0 3.76 5.43l47.2 18.9-11.67 50.15c-.52 2.24.29 4.58 2.07 6.03a6.021 6.021 0 0 0 6.32.77l34.04-15.94 27.3 50.52a6.03 6.03 0 0 0 5.28 3.15 5.998 5.998 0 0 0 5.94-5.12l10.15-68.49 60.84-22.6a6.004 6.004 0 0 0 3.91-5.54 6.011 6.011 0 0 0-3.76-5.65l-47.48-19.17 17.89-49.91c.85-2.37.12-5.02-1.82-6.63a6.008 6.008 0 0 0-6.85-.58l-48.59 28.28-31.67-55.88a6.018 6.018 0 0 0-6.55-2.9 6.01 6.01 0 0 0-4.66 5.43l-4.24 59.77-53.89 24.38Zm62.09-14.93a5.992 5.992 0 0 0 3.51-5.04l3.09-43.52 24.87 43.88a6 6 0 0 0 3.66 2.84c1.54.41 3.2.2 4.58-.61l39.62-23.06-14.29 39.85a6.012 6.012 0 0 0 3.41 7.59l38.47 15.53-49.65 18.45a6.02 6.02 0 0 0-3.85 4.74L566 435.62l-21.43-39.64c-1.08-2-3.14-3.15-5.28-3.15-.85 0-1.72.18-2.54.57l-27.98 13.09 10.03-43.13c.67-2.89-.86-5.83-3.61-6.93l-38.91-15.58 44.32-20.05Z"></path><path fill="#ffdb5b" d="M515.19 356.43a5.996 5.996 0 0 1 3.61 6.93l-10.03 43.13 27.98-13.09c.82-.39 1.69-.57 2.54-.57 2.14 0 4.2 1.15 5.28 3.15L566 435.62l8.02-54.17a6.02 6.02 0 0 1 3.85-4.74l49.65-18.45-38.47-15.53a6.012 6.012 0 0 1-3.41-7.59l14.29-39.85-39.62 23.06a6.014 6.014 0 0 1-4.58.61 6 6 0 0 1-3.66-2.84l-24.87-43.88-3.09 43.52a5.992 5.992 0 0 1-3.51 5.04l-44.32 20.05 38.91 15.58Z"></path><path fill="#dd9d37" d="m683.71 513.21-60.75 22.54-27.86-61.88a6.004 6.004 0 0 0-11.35 1.24l-15.3 73.75-44.73 26.65a6.005 6.005 0 0 0-2.89 5.8 5.99 5.99 0 0 0 4.06 5.04l41.64 13.93-8.58 36.51c-.59 2.5.48 5.1 2.66 6.46a5.988 5.988 0 0 0 6.97-.44l43.43-35.41 51.59 37.45c1.05.77 2.29 1.15 3.53 1.15 1.22 0 2.43-.37 3.48-1.12a5.982 5.982 0 0 0 2.26-6.62l-19.78-65.24 38.48-50.56a6 6 0 0 0 .04-7.2 5.994 5.994 0 0 0-6.9-2.05Zm-43.02 54.99a5.977 5.977 0 0 0-.97 5.37l15.49 51.09-40.89-29.69a6.037 6.037 0 0 0-3.53-1.14c-1.34 0-2.69.45-3.79 1.35l-33.33 27.18 5.8-24.66a6 6 0 0 0-3.94-7.06l-34.43-11.52 35.76-21.3a5.985 5.985 0 0 0 2.81-3.94l12.08-58.23 22.57 50.14c1.3 2.88 4.6 4.26 7.56 3.16l46.62-17.3-27.81 36.55Z"></path><path fill="#ffdb5b" d="m614.32 545.8-22.57-50.14-12.08 58.23a5.985 5.985 0 0 1-2.81 3.94l-35.76 21.3 34.43 11.52a6 6 0 0 1 3.94 7.06l-5.8 24.66L607 595.18c1.1-.9 2.45-1.35 3.79-1.35 1.24 0 2.47.38 3.53 1.14l40.89 29.69-15.49-51.09c-.56-1.84-.2-3.84.97-5.37l27.81-36.55-46.62 17.3a5.993 5.993 0 0 1-7.56-3.15ZM496.84 234.45c0-.77-.02-1.51-.07-2.2-7.48 5.96-16.41 12.77-25 18.55 2.19.65 4.55.65 6.94.65 8.76 0 18.13-4.46 18.13-17ZM460.66 222.08c.11 2.32.26 4.46.45 6.43.61 6.33 1.62 10.91 2.94 14.23 8.46-5.62 17.79-12.68 25.91-19.14-3.67-1.16-9.25-1.72-17.72-1.76-.42-.01-.85-.01-1.28-.01-3.49 0-6.94.09-10.3.25Z"></path><path fill="#dd9d37" d="M382.61 376.6a5.505 5.505 0 0 0 7.76.27c2.22-2.07 2.35-5.55.29-7.77-1-1.07-6.29-6.43-12.7-6.43-1.44 0-5.27 0-24.06 13.89-4.32 3.2-18.95 14.26-25.97 22.56a5.49 5.49 0 0 0 .65 7.75c1.03.88 2.29 1.3 3.54 1.3 1.57 0 3.12-.66 4.21-1.95 9.05-10.71 36.02-30.15 42.02-32.49 1.17.28 3.12 1.66 4.26 2.87Z"></path><path fill="#ffdb5b" d="M493.78 645.89c-22.2-17.1-37.7-40.5-37.7-56.93 0-.48.01-.94.03-1.4.55-13.33 9.01-15.99 14.81-17.56 5.37-1.46 6.61-1.77 6.66-3.68v-.11c0-2.28-.85-2.58-1.6-2.85-.84-.3-1.85-.42-2.95-.41-4.79.06-11.35 2.74-13.53 5.46-13.31 16.82-32.25 36.92-46.78 36.92-8 0-13.84-3.68-17.79-8.04-.24 1.16-.4 2.27-.47 3.3-.21 2.9-2.62 5.12-5.48 5.12-.13 0-.26-.01-.39-.02a5.506 5.506 0 0 1-5.11-5.87c.96-13.62 12.14-32.94 12.61-33.76a5.502 5.502 0 0 1 7.52-1.98 5.494 5.494 0 0 1 1.99 7.52c-1.38 2.37-3.86 7.03-6.12 12.24v.01c.13.4 3.46 10.48 13.24 10.48 6.84 0 19.45-10.27 33.64-27.2-12.74-12.26-17.96-29.09-19.99-42.84-1.78-.05-3.7-.08-5.78-.08-6.89 0-9.39 8.85-10.27 16.28-1.11 9.32-9.07 16.34-18.52 16.34h-4.14c-8.79 0-15.94-7.15-15.94-15.94v-19.44c0-3.03 2.46-5.5 5.5-5.5s5.5 2.47 5.5 5.5v19.44c0 2.73 2.21 4.94 4.94 4.94h4.14c3.88 0 7.14-2.85 7.59-6.63 2.69-22.62 14.44-25.99 21.2-25.99 4.12 0 7.66.12 10.77.3.05 0 .11 0 .16.01.11.01.22.01.32.02 4.95.3 8.77.77 12.11 1.18 3.95.48 7.06.86 10.77.86 4.48 0 5.31-1.47 6-3.54 1.18-3.54.23-7.56-2.48-10.49l-59.14-63.99a5.484 5.484 0 0 1-1.46-3.73v-58.67c0-4.74-.79-5.12-4.09-6.7-7.24-3.46-13.75-8.19-13.75-27.8 0-25.9 12.02-57.84 23.9-76.01 8.23-12.59 29.08-29.85 46.01-41.64-.01-.03-.01-.07-.01-.1-124.25 13.02-158.23 140.16-158.23 216.92 0 103.78 51.8 167.6 95.25 202.85 53.93 43.77 113.57 59.65 140.5 59.65 39.31 0 68.19-13.71 83.35-23.09-28.5-2.38-88.48-10.04-116.79-33.35ZM336.33 406.21a5.485 5.485 0 0 1-4.21 1.95c-1.25 0-2.51-.42-3.54-1.3a5.49 5.49 0 0 1-.65-7.75c7.02-8.3 21.65-19.36 25.97-22.56 18.79-13.89 22.62-13.89 24.06-13.89 6.41 0 11.7 5.36 12.7 6.43 2.06 2.22 1.93 5.7-.29 7.77a5.505 5.505 0 0 1-7.76-.27c-1.14-1.2-3.09-2.58-4.26-2.87-6 2.34-32.97 21.78-42.02 32.49Zm29.34.83c-2.11 1.77-3.79 3.47-4.76 4.96a5.518 5.518 0 0 1-4.62 2.51c-1.03 0-2.07-.29-2.99-.89-2.55-1.65-3.27-5.06-1.62-7.61 6.77-10.43 29.84-22.4 32.45-23.74 2.7-1.38 6.01-.3 7.39 2.4 1.39 2.71.31 6.02-2.39 7.4-2.57 1.31-5.7 3.04-8.94 4.97a9.877 9.877 0 0 1 5.15 8.68c0 5.45-4.43 9.87-9.88 9.87-5-.01-9.14-3.72-9.79-8.55Z"></path><path fill="#dd9d37" d="M385.34 405.71c0-3.75-2.08-7-5.15-8.68 3.24-1.93 6.37-3.66 8.94-4.97a5.493 5.493 0 0 0 2.39-7.4c-1.38-2.7-4.69-3.78-7.39-2.4-2.61 1.34-25.68 13.31-32.45 23.74-1.65 2.55-.93 5.96 1.62 7.61.92.6 1.96.89 2.99.89 1.8 0 3.56-.89 4.62-2.51.97-1.49 2.65-3.19 4.76-4.96.65 4.83 4.79 8.55 9.79 8.55 5.45 0 9.88-4.41 9.88-9.87Z"></path><path fill="#dd9d37" d="M626.5 669.26c-.92-.03-91.62-3.67-125.79-31.91l-.15-.12c-21.74-16.72-33.48-37.35-33.48-48.27 0-6.13 1.13-6.83 6.71-8.34 5.09-1.37 14.79-3.6 14.79-14.4 0-6.4-3.25-11.21-8.94-13.22-8.1-2.86-19.57.63-26.02 5.87-9.63-9.5-14.04-22.54-16-33.81 1.78.19 3.41.38 4.98.58 4.15.51 7.73.95 12.11.95 8.47 0 14-3.72 16.44-11.07 2.44-7.34.59-15.55-4.84-21.42l-57.68-62.41v-56.52c0-11.68-6.23-14.65-10.35-16.62-4.02-1.92-7.49-3.58-7.49-17.88 0-23.49 11.39-53.6 22.11-69.99 6.61-10.11 23.2-24.3 38.09-35.13.87 5.25 2.1 9.53 3.67 13-3.11 1.74-5.94 3.1-8.32 3.92-2.88.99-4.4 4.12-3.41 6.99a5.489 5.489 0 0 0 5.2 3.71c.59 0 1.19-.09 1.79-.3 3.29-1.13 7.13-3.02 11.27-5.4 4.66 3.8 10.57 4.99 17.52 4.99 17.15 0 29.13-11.51 29.13-28 0-3.91-.56-7.18-1.6-9.91 4.75-3.94 7.88-6.66 8.34-7.06 2.28-2 2.52-5.48.53-7.76-2-2.29-5.47-2.53-7.77-.54-2.05 1.79-4.78 4.12-7.97 6.77-6.93-4.53-17.35-5.12-28.41-5.12-150.38 0-190.5 143.95-190.5 229 0 108.12 54.01 174.63 99.32 211.4 24.24 19.67 52.42 36.02 81.49 47.28 24.32 9.42 48.36 14.82 65.94 14.82 63.63 0 101.19-33.08 102.76-34.49a5.49 5.49 0 0 0 1.49-5.97c-.76-2.1-2.73-3.55-4.96-3.62ZM496.84 234.45c0 12.54-9.37 17-18.13 17-2.39 0-4.75 0-6.94-.65 8.59-5.78 17.52-12.59 25-18.55.05.69.07 1.43.07 2.2Zm-24.6-12.6c8.47.04 14.05.6 17.72 1.76-8.12 6.46-17.45 13.52-25.91 19.14-1.32-3.32-2.33-7.9-2.94-14.23-.19-1.97-.34-4.11-.45-6.43 3.36-.17 6.81-.25 10.3-.25.43-.01.86-.01 1.28.01Zm54.97 480.48c-26.93 0-86.57-15.88-140.5-59.65-43.45-35.25-95.25-99.07-95.25-202.85 0-76.76 33.98-203.9 158.23-216.92 0 .03 0 .07.01.1-16.93 11.79-37.78 29.05-46.01 41.64-11.88 18.17-23.9 50.11-23.9 76.01 0 19.61 6.51 24.34 13.75 27.8 3.3 1.58 4.09 1.96 4.09 6.7v58.67c0 1.38.52 2.72 1.46 3.73l59.14 63.99c2.71 2.93 3.66 6.95 2.48 10.49-.69 2.07-1.52 3.54-6 3.54-3.71 0-6.82-.38-10.77-.86-3.34-.41-7.16-.88-12.11-1.18-.1-.01-.21-.01-.32-.02-.05-.01-.11-.01-.16-.01-3.11-.18-6.65-.3-10.77-.3-6.76 0-18.51 3.37-21.2 25.99-.45 3.78-3.71 6.63-7.59 6.63h-4.14c-2.73 0-4.94-2.21-4.94-4.94v-19.44c0-3.03-2.46-5.5-5.5-5.5s-5.5 2.47-5.5 5.5v19.44c0 8.79 7.15 15.94 15.94 15.94h4.14c9.45 0 17.41-7.02 18.52-16.34.88-7.43 3.38-16.28 10.27-16.28 2.08 0 4 .03 5.78.08 2.03 13.75 7.25 30.58 19.99 42.84-14.19 16.93-26.8 27.2-33.64 27.2-9.78 0-13.11-10.08-13.24-10.48v-.01c2.26-5.21 4.74-9.87 6.12-12.24 1.53-2.63.64-5.99-1.99-7.52a5.502 5.502 0 0 0-7.52 1.98c-.47.82-11.65 20.14-12.61 33.76a5.506 5.506 0 0 0 5.11 5.87c.13.01.26.02.39.02 2.86 0 5.27-2.22 5.48-5.12.07-1.03.23-2.14.47-3.3 3.95 4.36 9.79 8.04 17.79 8.04 14.53 0 33.47-20.1 46.78-36.92 2.19-2.71 8.75-5.39 13.53-5.46 1.11-.01 2.12.11 2.96.41.75.27 1.6.57 1.6 2.85v.11c-.04 1.91-1.29 2.22-6.66 3.68-5.8 1.57-14.26 4.22-14.81 17.56-.02.45-.03.92-.03 1.4 0 16.43 15.5 39.83 37.7 56.93 28.31 23.32 88.29 30.98 116.78 33.36-15.16 9.38-44.04 23.08-83.35 23.08Z"></path></svg><style>@media (prefers-color-scheme: light) { :root { filter: none; } }
</style></svg>